PathFileType	4	(X/Y/Z)	/Users/whiskymisky/masters/Sports2D_results/trial_4_Sports2D/trial_4_Sports2D_m_person00.trc
DataRate	CameraRate	NumFrames	NumMarkers	Units	OrigDataRate	OrigDataStartFrame	OrigNumFrames
50	50	11	22	m	50	686	1098
Frame#	Time	Hip			RHip			RKnee			RAnkle			RBigToe			RSmallToe			RHeel			LHip			LKnee			LAnkle			LBigToe			LSmallToe			LHeel			Neck			Head			Nose			RShoulder			RElbow			RWrist			LShoulder			LElbow			LWrist		
		X1	Y1	Z1	X2	Y2	Z2	X3	Y3	Z3	X4	Y4	Z4	X5	Y5	Z5	X6	Y6	Z6	X7	Y7	Z7	X8	Y8	Z8	X9	Y9	Z9	X10	Y10	Z10	X11	Y11	Z11	X12	Y12	Z12	X13	Y13	Z13	X14	Y14	Z14	X15	Y15	Z15	X16	Y16	Z16	X17	Y17	Z17	X18	Y18	Z18	X19	Y19	Z19	X20	Y20	Z20	X21	Y21	Z21	X22	Y22	Z22
686	13.72	4.276346183545752	0.8180744517861086	0.0301	4.144791521973174	0.8258925581662226	0.0301	3.855977915684438	0.4734539938985716	0.129	3.6275970749025226	0.16099101940207658	0.023	3.582456459106703	0.047559546015085316	0.2179	3.515403078684024	0.09271807162943145	0.1804	3.6235634397549883	0.11446698693177743	-0.0119	4.363241698277404	0.7296811095632195	0.0301	4.240561600881239	0.3088146981328484	0.129	4.158426642043916	-0.029649975440723512	0.023	4.151020755696365	-0.1508694573524227	0.2179	4.206555612512241	-0.15236656110559574	0.1804	4.117832315466866	-0.05708090380756373	-0.0119	4.54736319909122	1.3503858048136725	0.0008	4.65631375192483	1.6053655707172723	0.0655	4.5899805082465095	1.4740742908662507	0.1076	4.333640972185378	1.3662007359322539	-0.01275	4.055450490362695	1.446416772874044	0.0702	4.059866809799995	1.6836836021195178	0.1076	4.70809589088763	1.2084806481471084	-0.01275	4.928029976885568	1.0600646869537778	0.0702	5.114852493108442	1.2114464776640057	0.1076
687	13.74	4.276528996310231	0.8183042542120935	0.0301	4.144951781882162	0.826397094261296	0.0301	3.8559474211862717	0.47323687611643606	0.129	3.627081060310607	0.16087522129170448	0.023	3.582889077239515	0.048065700191118825	0.2179	3.516158645992985	0.0922368017942388	0.1804	3.6227933319238725	0.11471211269566854	-0.0119	4.363611313119231	0.7295888456238017	0.0301	4.240667666291967	0.30800306100352554	0.129	4.159770013536935	-0.030876147415153807	0.023	4.152214888074078	-0.15222965424247997	0.2179	4.207843623587532	-0.1531677871811777	0.1804	4.11805691124586	-0.05792852510796571	-0.0119	4.5482801839381315	1.3497127722227367	0.0008	4.656703390051026	1.6048274940758929	0.0655	4.589807351056406	1.4740151911998893	0.1076	4.334629392426187	1.3665936687439995	-0.01275	4.056761332310499	1.4478248206916384	0.0702	4.064381591066068	1.6871150056688984	0.1076	4.708649699941568	1.2079527384614508	-0.01275	4.927575160811257	1.060824108356512	0.0702	5.108108130878045	1.2180926380370998	0.1076
688	13.76	4.276614071428235	0.8187537516918116	0.0301	4.145500487838011	0.8272337773205484	0.0301	3.8555235533393137	0.4727589393175243	0.129	3.6270068512062434	0.16094709934317242	0.023	3.5832658769226278	0.04888299467184337	0.2179	3.517290575628074	0.09173556142501446	0.1804	3.6228864772073557	0.11508869493956855	-0.0119	4.36440669747284	0.729275952407626	0.0301	4.241019530376542	0.3078494416395448	0.129	4.160634836105457	-0.031750783721929784	0.023	4.153974970387068	-0.15339732450918583	0.2179	4.209508324381094	-0.1535188881615997	0.1804	4.117995050229337	-0.05839024904172482	-0.0119	4.548733551000787	1.348574829162914	0.0008	4.657341926614395	1.6043398385175562	0.0655	4.590418063024693	1.4735654100675508	0.1076	4.335501205110536	1.3665894669477072	-0.01275	4.057825929060693	1.448788513873672	0.0702	4.068476761510458	1.6898992163979085	0.1076	4.709706668183454	1.2071907800034203	-0.01275	4.928260623168196	1.0614071041498498	0.0702	5.100599100292674	1.2252592124490547	0.1076
689	13.780000000000001	4.276506835183146	0.8187781528563918	0.0301	4.146063663381262	0.8278418546250174	0.0301	3.8547307756267104	0.4716812782187062	0.129	3.6270166130631813	0.1607622532682864	0.023	3.582776391871555	0.04968879099256362	0.2179	3.517691048988615	0.09145465763788106	0.1804	3.6236240605338916	0.11520145509401321	-0.0119	4.365142608385286	0.7285929448991523	0.0301	4.24142166958779	0.3081119410087738	0.129	4.160715879194752	-0.03232420283577237	0.023	4.155634587859961	-0.15366190306429572	0.2179	4.21112329977972	-0.15339673288598982	0.1804	4.117588691705943	-0.058364444560760224	-0.0119	4.548672862912148	1.3472271121352197	0.0008	4.658391157336399	1.6038150849192407	0.0655	4.591693255624766	1.4727095597044004	0.1076	4.3360599320581645	1.3662170441187078	-0.01275	4.058784457122676	1.4493676492385397	0.0702	4.071729314603811	1.6914286178256988	0.1076	4.710985146324461	1.2064431759226955	-0.01275	4.929347849208545	1.061536720779172	0.0702	5.0938428871381864	1.2309389414527414	0.1076
690	13.8	4.276341351678325	0.8184239774924063	0.0301	4.146566051102841	0.8280405190904375	0.0301	3.854137254353275	0.4705450472837303	0.129	3.627093255930076	0.16055205660375654	0.023	3.5818789174006804	0.05039003057926705	0.2179	3.5173532211937433	0.09175908556187326	0.1804	3.62434903329824	0.11546266262875395	-0.0119	4.365477848266973	0.7278634668864721	0.0301	4.2420591790524655	0.3086743459333471	0.129	4.160157595622818	-0.03265597321139766	0.023	4.156591292856753	-0.15289566671720825	0.2179	4.21200746428946	-0.15293552570830213	0.1804	4.116966736057234	-0.058031592369354214	-0.0119	4.548354964121722	1.345933382816109	0.0008	4.659596885842669	1.6031524180900674	0.0655	4.59319666384388	1.4714203329455522	0.1076	4.336214954913692	1.3657429177661342	-0.01275	4.0597245448409325	1.4497927749321553	0.0702	4.074105418854524	1.6916204991890085	0.1076	4.711996140680805	1.2058505867000238	-0.01275	4.929940859912435	1.0615935573947362	0.0702	5.08933575332971	1.235006622688384	0.1076
691	13.82	4.276420877373694	0.8181979073435282	0.0301	4.147051148784542	0.8281191515115481	0.0301	3.8541619331169734	0.4699505231598408	0.129	3.6273185627038766	0.16062279042061733	0.023	3.5814408835878506	0.050796625069698155	0.2179	3.5169938218325023	0.09255715192701658	0.1804	3.6245648887002098	0.11615219392877381	-0.0119	4.365375885531933	0.7274763018848556	0.0301	4.243088862835056	0.3093785136732976	0.129	4.159285846993267	-0.03271290275802213	0.023	4.156803864884328	-0.1515789130621733	0.2179	4.2118838847959195	-0.15218540517515933	0.1804	4.116319976528033	-0.05754679138681023	-0.0119	4.548130537572418	1.3449031557844369	0.0008	4.660689781078847	1.6024663672402146	0.0655	4.594621518600403	1.4698614682722173	0.1076	4.336121398573612	1.3654197155151924	-0.01275	4.0606711634923816	1.4503243461096333	0.0702	4.075946314160362	1.6909994460386353	0.1076	4.712472715906509	1.2054421828200659	-0.01275	4.93008155557067	1.0617014583993012	0.0702	5.087144668114601	1.2385080378134956	0.1076
692	13.84	4.276747927041361	0.818199402955208	0.0301	4.147223847791739	0.8282143548715131	0.0301	3.8546181674013527	0.4697329423276991	0.129	3.6273933646255365	0.16062129680569706	0.023	3.5814518894745784	0.05064340749155426	0.2179	3.516889052860584	0.09322360756370847	0.1804	3.6243532479468143	0.11668566385000513	-0.0119	4.364899371065075	0.7273442004342414	0.0301	4.244228533681827	0.30985781485143615	0.129	4.158376525043639	-0.03261313090999803	0.023	4.156689386274016	-0.1503117858279157	0.2179	4.211173950028407	-0.1513156070888554	0.1804	4.115831309394257	-0.05703717734691176	-0.0119	4.5481522131909795	1.344325810742563	0.0008	4.6618504725495304	1.6019668979977786	0.0655	4.595955035275037	1.468442935704127	0.1076	4.335963829199281	1.3653065994220803	-0.01275	4.06150825902808	1.4510108275199516	0.0702	4.077459697826445	1.69025620304101	0.1076	4.712441763204121	1.2051106592655252	-0.01275	4.930649241753369	1.0613356037164363	0.0702	5.086123023082856	1.2421315896241152	0.1076
693	13.86	4.276862588125033	0.8181082105373034	0.0301	4.146746022766082	0.8280502029430625	0.0301	3.855090712232173	0.4694936958879352	0.129	3.6271061743432065	0.16032243871209056	0.023	3.5817055694625406	0.05006819144294704	0.2179	3.517131047464165	0.09340812013951161	0.1804	3.6240280450911313	0.11657326217483086	-0.0119	4.364084408923903	0.7271838970572173	0.0301	4.245010262350973	0.30988094487340373	0.129	4.157467191855615	-0.032658469659084664	0.023	4.1563760806155035	-0.1494099021573776	0.2179	4.21008190604638	-0.15080511301587537	0.1804	4.1155304326442055	-0.05676542341331589	-0.0119	4.548219779993234	1.3442210326797812	0.0008	4.663347699955441	1.6014821710048792	0.0655	4.597204146947769	1.4673257166429192	0.1076	4.335563453915727	1.3654933240472782	-0.01275	4.061959373554885	1.4516016511836405	0.0702	4.078563081034912	1.6895856704998962	0.1076	4.7117820871904765	1.204545166280278	-0.01275	4.931767694753917	1.060516866459177	0.0702	5.085235815400827	1.246077792616083	0.1076
694	13.88	4.276359934318243	0.8178795058380104	0.0301	4.145821623314109	0.8274274808355325	0.0301	3.8554775501182257	0.46935098483319493	0.129	3.6267508961209973	0.16045769142986582	0.023	3.5829091453916773	0.04953845026994992	0.2179	3.518305410822487	0.09346693326611594	0.1804	3.623564273063368	0.1163254205891391	-0.0119	4.362977320535942	0.7270647030079659	0.0301	4.24522473169584	0.3096315542459533	0.129	4.1563323097843865	-0.032893003270888226	0.023	4.155419777286477	-0.1488956758599558	0.2179	4.207978781490157	-0.15100976740273114	0.1804	4.115196343358881	-0.05689317930561026	-0.0119	4.547984278462544	1.3442812424153407	0.0008	4.6649904015842045	1.6004152681732662	0.0655	4.598101329621416	1.466201757237411	0.1076	4.334635779452215	1.3662048884137254	-0.01275	4.061919193201666	1.4518572070351439	0.0702	4.0791657832539014	1.6886139487465426	0.1076	4.710132761441485	1.2033226569298983	-0.01275	4.93194700597142	1.0604244907354974	0.0702	5.084378661204639	1.2505674711130774	0.1076
695	13.9	4.2753500979085866	0.8179597820356491	0.0301	4.145014299295557	0.826579858993593	0.0301	3.856007865681937	0.4696782371976414	0.129	3.6266795294968786	0.1618089698651834	0.023	3.5857656786542806	0.0493277753543772	0.2179	3.5207682897143497	0.09392451521481524	0.1804	3.622738135569221	0.11669170546161996	-0.0119	4.361674981331231	0.7272951151967869	0.0301	4.245017512216483	0.30949368054326726	0.129	4.154819965930415	-0.032902217897151	0.023	4.153496645409707	-0.14867244499871232	0.2179	4.204416881402488	-0.15169578727197286	0.1804	4.1144742732149595	-0.05718994178966971	-0.0119	4.547270988063343	1.3441069976874551	0.0008	4.6662782685537385	1.5984128623632294	0.0655	4.598353580973442	1.4647870845931337	0.1076	4.333377031404673	1.367409488961672	-0.01275	4.06166331426843	1.451828636697081	0.0702	4.079304987112622	1.6869935772009867	0.1076	4.707488791435937	1.201269493376013	-0.01275	4.929602922781977	1.0620447612086084	0.0702	5.0838890625737525	1.2555571223640778	0.1076
696	13.92	4.274364274536561	0.8187442996985019	0.0301	4.144710604150435	0.8260188500591913	0.0301	3.856843449537023	0.47049854195856833	0.129	3.626909739936224	0.1639712562256517	0.023	3.5892938538584005	0.049495190270725	0.2179	3.5235635692812526	0.09500246254503103	0.1804	3.621695246169887	0.11757282400824551	-0.0119	4.360440323635067	0.7279216454561963	0.0301	4.2447430505582835	0.30966129093730077	0.129	4.153243201330431	-0.032304778622273385	0.023	4.151004803416384	-0.14862704511629765	0.2179	4.200205535619192	-0.15221993037016157	0.1804	4.113250038009064	-0.05719526635225238	-0.0119	4.546222307007703	1.3435274634919185	0.0008	4.666957313823715	1.5959151403005234	0.0655	4.598181015317434	1.4632424991147537	0.1076	4.3323937241800365	1.3685453006007269	-0.01275	4.061619634777141	1.4516104104679262	0.0702	4.079045036571439	1.6849844643230767	0.1076	4.704612226940819	1.1988336864575801	-0.01275	4.925140680351034	1.0647954540273135	0.0702	5.083610828891608	1.2600750653947699	0.1076
